<svg id="f7f9db30-d6a2-438b-afda-e094f80d6ed1" data-name="Layer 1" xmlns="http://www.w3.org/2000/svg" xmlns:xlink="http://www.w3.org/1999/xlink" viewBox="0 0 218.57 166.54">
  <defs>
    <linearGradient id="af8e995b-0e2f-44c5-a9db-a952fe3289cd" y1="287.4" x2="1" y2="287.4" gradientTransform="matrix(-53.73, 13.72, 13.72, 53.73, -3869.76, -15280.48)" gradientUnits="userSpaceOnUse">
      <stop offset="0" stop-color="#fb2"/>
      <stop offset="0.47" stop-color="#feb019"/>
      <stop offset="1" stop-color="#fd9500"/>
    </linearGradient>
  </defs>
  <title>9 - ECONOMY ANALYSISs</title>
  <g id="a93b4602-8877-4242-ad52-f801137ee76b" data-name=" 9---ECONOMY-ANALYSIS">
    <g id="a312a2e2-5c37-4e65-80fd-1a5416965867" data-name="CHART-POSTER-2">
      <g>
        <rect x="119.18" y="95.08" width="79.71" height="64.53" style="fill: #4338ca"/>
        <path d="M179.26,186.42H166.78v27.1h12.48Zm49,1.28H215.74v25.82h12.48Zm-16.32-7.23H199.42v33.05H211.9Zm-16.32-9.25H183.1v42.3h12.48Zm29.12,12.23h-5.61v3.07h5.61Zm-49.11-1.19H170v3.07h5.62Zm32.88-5.75h-5.62v3.07h5.62Zm-16.53-9.46h-5.61v3.07h5.61Z" transform="translate(-37.05 -61.74)" style="fill: #e0e7ff;fill-rule: evenodd"/>
      </g>
      <path d="M202.78,208.63l24.52-26.52a.92.92,0,0,1,1.32,0,1,1,0,0,1,0,1.33l-25.29,27.35a.92.92,0,0,1-.73.29,1,1,0,0,1-.7-.38L184.37,186.3l-18.76,25.37a.92.92,0,0,1-1.3.19,1,1,0,0,1-.18-1.33l19.51-26.38a.92.92,0,0,1,1.49,0Z" transform="translate(-37.05 -61.74)" style="fill: #818cf8;fill-rule: evenodd"/>
    </g>
    <g id="e149a6a8-6ff5-4622-9200-ab4f75f518e5" data-name="CURVE">
      <path d="M190.76,96.44a2.49,2.49,0,0,1-.15-.87,2.6,2.6,0,1,1,2.6,2.6,2.72,2.72,0,0,1-1-.19l-26,30.41a2.51,2.51,0,0,1,.27,1.13,2.6,2.6,0,0,1-5.2,0,1.48,1.48,0,0,1,0-.21l-2.48-1.72a2.59,2.59,0,0,1-1.59.55,2.54,2.54,0,0,1-.83-.14l-26.28,34.63a2.56,2.56,0,0,1,.12.79,2.6,2.6,0,1,1-5.19,0,2.73,2.73,0,0,1,0-.41l-16.2-16.23a2.58,2.58,0,0,1-1.21.3,2.67,2.67,0,0,1-.75-.11l-28.2,43.9a2.6,2.6,0,1,1-2.24-1.27,3,3,0,0,1,.52.05l28.31-44.08a2.63,2.63,0,0,1-.24-1.09,2.6,2.6,0,0,1,5.2,0,3.2,3.2,0,0,1-.07.63l16.07,16.11a2.56,2.56,0,0,1,2.41-.18l26.16-34.48a2.48,2.48,0,0,1-.21-1,2.6,2.6,0,1,1,5.19,0v.18l2.5,1.73a2.58,2.58,0,0,1,1.57-.53,2.46,2.46,0,0,1,.72.11Z" transform="translate(-37.05 -61.74)" style="fill: #312e81;fill-rule: evenodd"/>
    </g>
    <g id="b697f7d3-99ca-41d7-9978-4c10ebec2a8a" data-name="CHART-POSTER-ONE">
      <rect x="19.06" y="12.6" width="82.58" height="62.38" style="fill: #818cf8"/>
      <path d="M72.68,84.88H67.06v45.77h5.62ZM83.83,80.8H78.21v49.82h5.62ZM95,91.26H89.36V130.6H95Zm11.15-6.5h-5.62v45.81h5.62Zm11.15,12.73h-5.62v33.05h5.62Zm11.15,9.24h-5.62V130.5h5.62Z" transform="translate(-37.05 -61.74)" style="fill: #eef2ff;fill-opacity: 0.6399999856948853;fill-rule: evenodd"/>
    </g>
    <g id="a121d04e-e8d5-43c4-a528-475c9213b2e5" data-name="UP-ARROW">
      <path d="M150.56,201.86H139.34V186.93h-7.69L145,167.64l13.3,19.29h-7.69Z" transform="translate(-37.05 -61.74)" style="fill: #6366f1;fill-rule: evenodd"/>
    </g>
    <g id="ac4dd70a-b4f9-4e8f-a65f-93f13f36c725" data-name="DOWN-ARROW">
      <path d="M211.41,77.24h11.23V92.18h7.68L217,111.46l-13.3-19.28h7.68Z" transform="translate(-37.05 -61.74)" style="fill: #3730a3;fill-rule: evenodd"/>
    </g>
    <g id="e869781b-6fc8-4012-8b3e-dfc514e65a15" data-name="DOLLAR-">
      <ellipse cx="146.41" cy="84.84" rx="18.71" ry="19.03" style="fill: #ffe400"/>
      <g>
        <path d="M179.09,133.6l-.68.25-.35-1,1.21-.44a.52.52,0,0,1,.68.3l.58,1.64a13.81,13.81,0,0,1,3.19-.61,12.93,12.93,0,0,1,4.05.34.55.55,0,0,1,.34.27.52.52,0,0,1,0,.44l-1.51,3.12a.58.58,0,0,1-.64.3,8.71,8.71,0,0,0-4.06,0l1.92,5.48c5.3-.81,8.47.58,9.59,4a6.28,6.28,0,0,1-.56,5.32,10.38,10.38,0,0,1-4.37,4l1,2.82a.53.53,0,0,1-.34.67l-1.18.43-.34-1,.67-.24-1-2.76a.53.53,0,0,1,.28-.65,9.56,9.56,0,0,0,4.31-3.79,5.26,5.26,0,0,0,.47-4.5c-1-3-4-4.06-8.86-3.23a.51.51,0,0,1-.58-.32l-2.25-6.41a.53.53,0,0,1,0-.41.57.57,0,0,1,.34-.27,10,10,0,0,1,4.75-.3l1-2.14a11.88,11.88,0,0,0-3.09-.19,13.1,13.1,0,0,0-3.41.73.51.51,0,0,1-.67-.3Zm8,19.53a3.34,3.34,0,0,0,1.29-1.51,2.89,2.89,0,0,0,.14-1.06l1.08-.1a3.92,3.92,0,0,1-.19,1.44,5.07,5.07,0,0,1-2.34,2.48.64.64,0,0,1-.47.06.52.52,0,0,1-.32-.31l-1.2-3.44,1-.37Zm-10.44-11.7a3.83,3.83,0,0,1,.32-1.36v0a4.2,4.2,0,0,1,1.93-1.84.56.56,0,0,1,.44,0,.5.5,0,0,1,.3.3l1,2.81-1,.37-.78-2.22a3.14,3.14,0,0,0-.88,1,2.66,2.66,0,0,0-.22,1v0a2.94,2.94,0,0,0,.19,1.26l-1,.37A4,4,0,0,1,176.66,141.43Z" transform="translate(-37.05 -61.74)" style="fill: #ffc300;fill-rule: evenodd"/>
        <path d="M178.38,144.86a3,3,0,0,1-1.48-1.76l1-.37a2,2,0,0,0,1,1.21h0a3.09,3.09,0,0,0,1.58.3l-.91-2.59,1-.37,1.13,3.24a.54.54,0,0,1-.06.46.6.6,0,0,1-.42.25A5,5,0,0,1,178.38,144.86Z" transform="translate(-37.05 -61.74)" style="fill: #ffc300;fill-rule: evenodd"/>
        <path d="M185.3,148l.81,2.32-1,.37-1-2.91a.53.53,0,0,1,.05-.44.6.6,0,0,1,.38-.26,5,5,0,0,1,3.34.19h0a3.45,3.45,0,0,1,1.5,1.86,4.7,4.7,0,0,1,.27,1.32l-1.08.1a3.66,3.66,0,0,0-.22-1,2.46,2.46,0,0,0-1.07-1.34A3.13,3.13,0,0,0,185.3,148Z" transform="translate(-37.05 -61.74)" style="fill: #ffc300;fill-rule: evenodd"/>
        <path d="M182,148.54c-5.12.73-8.15-.64-9.17-3.91a6.41,6.41,0,0,1,.34-5.3,10,10,0,0,1,4.27-3.79l-.59-1.69a.54.54,0,0,1,.34-.67l.84-.3.35,1-.33.12.57,1.63a.53.53,0,0,1-.29.64,9.26,9.26,0,0,0-4.21,3.55,5.43,5.43,0,0,0-.26,4.49c.92,2.93,3.77,3.93,8.45,3.17a.52.52,0,0,1,.58.33l2.35,6.71a.48.48,0,0,1,0,.42.53.53,0,0,1-.35.27,10.17,10.17,0,0,1-3.54.38,9.45,9.45,0,0,1-2.54-.48l-1.42,2.28a16,16,0,0,0,3.72.47,13.31,13.31,0,0,0,4.51-.76.52.52,0,0,1,.67.3l1,2.77.35-.13.34,1-.86.31a.52.52,0,0,1-.68-.29l-1-2.78a14.27,14.27,0,0,1-4.38.65,16.65,16.65,0,0,1-4.66-.69.46.46,0,0,1-.32-.3.51.51,0,0,1,0-.45l2-3.24a.56.56,0,0,1,.69-.23,8.33,8.33,0,0,0,2.64.56h0a8.13,8.13,0,0,0,2.58-.2Z" transform="translate(-37.05 -61.74)" style="fill: #ffc300;fill-rule: evenodd"/>
      </g>
    </g>
    <g id="f03be839-6907-4ae6-9282-62c4b28089ad" data-name="MAGNIFYING-GLASS">
      <g>
        <path d="M187.41,168a21.07,21.07,0,0,1-4.31.44,2.25,2.25,0,0,1,0-4.5,17.13,17.13,0,0,0,0-34.25,2.25,2.25,0,0,1,0-4.5,21.69,21.69,0,0,1,8.54,41.44l13.88,33.28a2.27,2.27,0,0,1-1.18,3,2.2,2.2,0,0,1-2.9-1.19Z" transform="translate(-37.05 -61.74)" style="fill: #ec781b;fill-rule: evenodd"/>
        <path d="M183.1,163.94a17.13,17.13,0,0,1,0-34.25,2.25,2.25,0,0,0,0-4.5,21.63,21.63,0,0,0,0,43.25,2.25,2.25,0,0,0,0-4.5Z" transform="translate(-37.05 -61.74)" style="fill: #ec781b;fill-rule: evenodd"/>
      </g>
    </g>
    <g id="a8b1064d-09ac-40de-8815-c764b6f2b1e0" data-name="BOY">
      <path d="M212.9,175.33a35.77,35.77,0,0,1-.8-10.35,21.11,21.11,0,0,1,13.18-18.22,20.61,20.61,0,0,1,25.44,9c5.09,8.86,6.74,18.63,2.45,28.28,0,0,2.76,18.44-1.21,31.72a17.39,17.39,0,0,1-14.51,12.34l-.69.09A16.4,16.4,0,0,1,221,220.69l-16.92-26.37L196,195a1.53,1.53,0,0,1-1.64-1.31,1.49,1.49,0,0,1,.77-1.48,6.29,6.29,0,0,1-1.28-.14,1.78,1.78,0,0,1-1.29-1.82,2.19,2.19,0,0,1,1.24-2.22h0a2.48,2.48,0,0,1-2.89-1.93l0-.15a2.06,2.06,0,0,1,.19-1.42,2.5,2.5,0,0,1,1.22-1.15l-1.28-.4a2.36,2.36,0,0,1-1.63-2.25h0a2.25,2.25,0,0,1,1.37-2.08l4.76-2s-3.8-4.92-2.22-6.37c.28-.26.9-.41,2.75,1.19.69.6,3.39,1.37,6.81.89A23.12,23.12,0,0,1,212.9,175.33Zm4.11-53A10.71,10.71,0,1,1,206.48,133,10.63,10.63,0,0,1,217,122.32Z" transform="translate(-37.05 -61.74)" style="fill: #ffc300;fill-rule: evenodd"/>
      <path d="M203.73,194.35l2.31-.26a.55.55,0,0,1,.61.49.56.56,0,0,1-.49.62l-1.4.16-.67-1Zm-10.85-3,6.67-.63a.56.56,0,0,1,.1,1.12l-4.51.42,0,0a6.29,6.29,0,0,1-1.28-.14A1.56,1.56,0,0,1,192.88,191.35Zm-1.19-3.92a.44.44,0,0,1,.16-.06L198,186a.55.55,0,0,1,.65.44.55.55,0,0,1-.42.66l-4.49,1,.07,0h0A2.42,2.42,0,0,1,191.69,187.43Zm-1.12-4.63,6.59-2.07a.56.56,0,0,1,.69.37.57.57,0,0,1-.37.71l-5.2,1.63.05,0-1.28-.4A3.48,3.48,0,0,1,190.57,182.8Zm4.31-7.06,2.3-1a.55.55,0,0,1,.73.3.58.58,0,0,1-.3.74l-2.07.86S195.25,176.28,194.88,175.74Z" transform="translate(-37.05 -61.74)" style="fill: #a63917;fill-rule: evenodd"/>
      <path d="M212.85,175.12A36.19,36.19,0,0,1,212.1,165a21.11,21.11,0,0,1,13.18-18.22,20.61,20.61,0,0,1,25.44,9c5.09,8.86,6.74,18.63,2.45,28.28,0,0,2.76,18.44-1.21,31.72a17.39,17.39,0,0,1-14.51,12.34l-.69.09A16.4,16.4,0,0,1,221,220.69l-4.57-7.12L232,195.12C223.85,182.28,215,176.43,212.85,175.12Z" transform="translate(-37.05 -61.74)" style="fill: #a63917;fill-rule: evenodd"/>
      <path d="M231.91,195l.07.09,10,15.4a.56.56,0,0,1-.16.78.54.54,0,0,1-.76-.16L231.23,196l.74-.88Zm21.36-10.3,0,.2,0,.07a188.86,188.86,0,0,0-5.4-22.13.42.42,0,0,1,.2-.51.39.39,0,0,1,.52.17,159.9,159.9,0,0,1,6.58,15.07c0,.2-.07.4-.11.6h0l0,.09h0l0,.09h0c0,.19-.08.39-.13.59h0l0,.09h0l0,.09v0l0,.08v0l0,.09h0c0,.13-.07.26-.11.39h0l0,.08v0l0,.07v0l0,.08v0l0,.07v0l0,.08v0l0,.08,0,.1,0,.09h0l0,.07v0l0,.06v.05l0,.06,0,0,0,.06v0l0,.06v.05l0,.06,0,0,0,.06,0,.06v0l0,.05,0,.06,0,0,0,.06v.05l0,0,0,.06,0,.05,0,0,0,.06,0,.05,0,.06v.05l0,.07v0l0,.11,0,0,0,.07,0,0,0,.06,0,.05,0,.06,0,.05,0,.06v.05l0,.06,0,0,0,.07,0,0,0,.09v0l-.05.1v0l0,.07,0,0,0,.07v0l0,.07,0,0,0,.07,0,0,0,.07,0,0,0,.07,0,0-.05.11v.15l0,.08v.31l0,.16ZM218.09,179s-.53-4.14-1.24-16.32a.34.34,0,0,1,.27-.38.26.26,0,0,1,.33.19l3,18.58C219.6,180.25,218.82,179.57,218.09,179Z" transform="translate(-37.05 -61.74)" style="fill: #83250d;fill-rule: evenodd"/>
      <path d="M208.81,126.32a10.44,10.44,0,0,1,8.2-4A10.63,10.63,0,0,1,227.54,133a10.77,10.77,0,0,1-3.88,8.3L220,137.61a3.07,3.07,0,0,0,1.18-.32,2.77,2.77,0,0,0,1.21-3.57,2.53,2.53,0,0,0-3.47-.85,3.06,3.06,0,0,0-1.34,2.3Z" transform="translate(-37.05 -61.74)" style="fill-rule: evenodd"/>
    </g>
    <g id="e9ec9bf8-45b0-4757-9bd7-7b5d3275345d" data-name="WORLD">
      <ellipse cx="79.02" cy="75.13" rx="18.71" ry="19.03" style="fill: #ffe400"/>
      <path d="M97.84,132.59a.88.88,0,0,1,.5-.06.84.84,0,0,1,.68.81,16.21,16.21,0,0,0,.91,1.43,32.4,32.4,0,0,0,5,5.37,31.68,31.68,0,0,1,5.36-11.6,32.73,32.73,0,0,1-5.54-5.48.84.84,0,0,1,.12-1.18A.81.81,0,0,1,106,122a30.9,30.9,0,0,0,5.28,5.22,35.66,35.66,0,0,1,9-8.08.82.82,0,0,1,1.13.32.84.84,0,0,1-.31,1.15,33.94,33.94,0,0,0-8.49,7.6,32.75,32.75,0,0,0,12.93,5.49,37.39,37.39,0,0,0,0-10.63.85.85,0,0,1,.7-1,.83.83,0,0,1,.94.71,39.12,39.12,0,0,1,0,11.14,35.71,35.71,0,0,0,6.88.28.79.79,0,0,1,.54.17c.05.41.09.82.12,1.24a.82.82,0,0,1-.58.27,37.93,37.93,0,0,1-7.25-.29,29,29,0,0,1-5.43,12.32,32.17,32.17,0,0,0,9.87-.11,18.63,18.63,0,0,1-1.51,1.91,33.07,33.07,0,0,1-9.61-.29,29.79,29.79,0,0,1-7.67,6.09l0,0c-.34-.07-.68-.14-1-.23l-.08-.12a.86.86,0,0,1,.32-1.15,27.76,27.76,0,0,0,6.57-5,34.12,34.12,0,0,1-12.26-5.85,31.09,31.09,0,0,0,.14,8.95.83.83,0,0,1-.24.74,17.4,17.4,0,0,1-1.48-1.07,32.33,32.33,0,0,1,.07-9.8,31.09,31.09,0,0,1-6.94-7.74l-.07-.13C97.63,133.62,97.72,133.1,97.84,132.59Zm13.78-3.05a29.9,29.9,0,0,0-5.25,11.79,32.51,32.51,0,0,0,13.25,6.27,27.38,27.38,0,0,0,5.67-12.25A34.29,34.29,0,0,1,111.62,129.54ZM98.33,134.2h-.24A1,1,0,0,0,98.33,134.2Z" transform="translate(-37.05 -61.74)" style="fill: #ffc300;fill-rule: evenodd"/>
    </g>
    <g id="a598b014-779b-4da0-9de0-be25eab35ea5" data-name="GIRL">
      <g>
        <path d="M52.2,172.82s-27.5-22.13-8.4-48.35c2-2.79,14.37-19,31.9-30.07a1.82,1.82,0,0,1,2.18.18,1.52,1.52,0,0,1,.39,1.71s2.71-.61,2.52,2c0,0,3.18-.87,3.29,2.46l7.54-9.4A1.89,1.89,0,0,1,94.08,91h0a1.64,1.64,0,0,1,.74,1,1.66,1.66,0,0,1-.18,1.25c-9.77,16.45-20.14,31.54-30.55,46.56,0,0,8.58,8.83,13,12,1.79,1.29,19.75,12.7,22.35,18.95,0,0,.22-1.44.46-3.07a7.13,7.13,0,0,1,5.21-5.82l3.56-.92a36.43,36.43,0,0,1,5.68-.51,4,4,0,0,1,3.76,2.78h0a2.69,2.69,0,0,1-.29,2.26l-.45.72,1.18.41a2.26,2.26,0,0,1,1.35,1.27h0a3.34,3.34,0,0,1-.54,3.49l-.45.52h.19a2.38,2.38,0,0,1,2.21,1.52h0a3,3,0,0,1-1,3.52l-.45.34c.34-.12.65.12.87.66a2.43,2.43,0,0,1-.92,2.94l-3.45,2.29c-.44,9.24-1.54,19.2-6.69,31.06a12.73,12.73,0,0,1-8.32,7.24h0a16.51,16.51,0,0,1-19.31-9.13,102.46,102.46,0,0,1-5-13.08,24.39,24.39,0,0,1-13-2.48C56.29,192.77,48.54,183.66,52.2,172.82Z" transform="translate(-37.05 -61.74)" style="fill-rule: evenodd;fill: url(#af8e995b-0e2f-44c5-a9db-a952fe3289cd)"/>
        <path d="M40.48,157.74c.81-2.56,3.67-8.3,12.75-7.76,0,0,3.22-9.55,13.4-7.63a113.39,113.39,0,0,0,10.47,9.46c1.79,1.29,19.75,12.7,22.35,18.95l0-.2c1.67,5,4.72,15.74,3.19,27.36a9.85,9.85,0,0,1-11.9-1s-5.55,7.49-13.57,2.71c0-.11-.07-.21-.1-.32a24.39,24.39,0,0,1-13-2.48c-7.8-4-15.55-13.12-11.89-24A48.36,48.36,0,0,1,40.48,157.74Zm38.16-8.42L81,150.81A10.93,10.93,0,0,1,78.64,149.32Z" transform="translate(-37.05 -61.74)" style="fill: #fd9500;fill-rule: evenodd"/>
        <path d="M101.84,195.22l-1.34,15.39a.55.55,0,1,0,1.1.1l1.34-15.39a.55.55,0,1,0-1.1-.1Z" transform="translate(-37.05 -61.74)" style="fill: #fd9500;fill-rule: evenodd"/>
        <path d="M73.12,199.28a30.12,30.12,0,0,1,1.63-12.55.36.36,0,0,1,.4-.22.38.38,0,0,1,.3.37,89.28,89.28,0,0,0,1.73,12.63,2.41,2.41,0,0,1-.08-.25A20.9,20.9,0,0,1,73.12,199.28ZM48.37,169.13a35.32,35.32,0,0,1,5.82-5.89,23.35,23.35,0,0,1,7.12-3.93.43.43,0,0,1,.5.26.46.46,0,0,1-.16.54c-5.36,3.73-8.42,10.19-9.45,12.7A39.89,39.89,0,0,1,48.37,169.13Z" transform="translate(-37.05 -61.74)" style="fill: #e15d33;fill-rule: evenodd"/>
        <path d="M119.9,177.26c.33-.1.64.13.86.67a.36.36,0,0,1,0,.09,15.09,15.09,0,0,1-5.28,2.22.56.56,0,0,1-.62-.48.57.57,0,0,1,.47-.64A13,13,0,0,0,119.9,177.26Zm-1-5.37h.19a2.37,2.37,0,0,1,1.25.36,17.5,17.5,0,0,1-5.59,2.79.56.56,0,0,1-.25-1.1A15.06,15.06,0,0,0,118.92,171.89Zm-1.54-5.69,1.1.38a9.85,9.85,0,0,1-5.56,3.86.56.56,0,0,1-.65-.44.56.56,0,0,1,.43-.67A8.38,8.38,0,0,0,117.38,166.2Z" transform="translate(-37.05 -61.74)" style="fill: #fd9500;fill-rule: evenodd"/>
        <path d="M110,162.49a12,12,0,0,1-3.88.14.56.56,0,0,0-.15,1.11,13.2,13.2,0,0,0,4.27-.15.56.56,0,0,0,.42-.67A.56.56,0,0,0,110,162.49Z" transform="translate(-37.05 -61.74)" style="fill: #fd9500;fill-rule: evenodd"/>
        <path d="M83.78,99.41a3.46,3.46,0,0,1,.3,1.39l.84-1-.06.08-2.07,2.55a.55.55,0,0,1-.78.08.57.57,0,0,1-.07-.79ZM80.51,97a2.11,2.11,0,0,1,.28,1.38l-1.28,1.5a.54.54,0,0,1-.78,0,.57.57,0,0,1,0-.79Zm-2.38-2.08a1.59,1.59,0,0,1,.14,1.42h0l-1.49,1.43a.54.54,0,0,1-.78,0,.57.57,0,0,1,0-.8Z" transform="translate(-37.05 -61.74)" style="fill: #fd9500;fill-rule: evenodd"/>
        <path d="M64.09,139.79,58.27,134a.44.44,0,0,1,.48-.72l7.7,3.19Z" transform="translate(-37.05 -61.74)" style="fill: #fd9500;fill-rule: evenodd"/>
      </g>
      <g>
        <path d="M108.2,163.81l.84-6.26a21,21,0,0,1-3.93-1.86,2.27,2.27,0,0,1-.77-3.08,2.19,2.19,0,0,1,3-.78,16.69,16.69,0,0,0,23.07-6,17.29,17.29,0,0,0-5.86-23.47,2.27,2.27,0,0,1-.77-3.09,2.18,2.18,0,0,1,3-.78,21.84,21.84,0,0,1,7.41,29.64,21.15,21.15,0,0,1-20.89,10.41l-.55,4.08A11.72,11.72,0,0,1,108.2,163.81Z" transform="translate(-37.05 -61.74)" style="fill: #ec781b;fill-rule: evenodd"/>
        <path d="M107.38,151.82a17.29,17.29,0,0,1-5.87-23.47,16.68,16.68,0,0,1,23.08-6,2.19,2.19,0,0,0,3-.79,2.26,2.26,0,0,0-.77-3.08,21.06,21.06,0,0,0-29.14,7.53,21.84,21.84,0,0,0,7.4,29.64,2.19,2.19,0,0,0,3-.78A2.28,2.28,0,0,0,107.38,151.82Z" transform="translate(-37.05 -61.74)" style="fill: #ec781b;fill-rule: evenodd"/>
      </g>
      <g>
        <ellipse cx="48.46" cy="79" rx="10.88" ry="11.07" style="fill: #ffc300"/>
        <path d="M81.73,145.11a17.56,17.56,0,0,1-6.22,0,11.1,11.1,0,0,1-.88-4.36,10.86,10.86,0,0,1,21.19-3.55c-.46,2.09-3.88,6.24-10.91,7.09a3,3,0,0,0,0-2A2.42,2.42,0,0,0,82,140.53a2.46,2.46,0,0,0-1.19,3.23A2.9,2.9,0,0,0,81.73,145.11Z" transform="translate(-37.05 -61.74)" style="fill-rule: evenodd"/>
        <ellipse cx="52.21" cy="59.61" rx="7.42" ry="7.55"/>
      </g>
    </g>
    <g id="f2a01d8c-3a5c-42d4-839e-1372c74b15cf" data-name="PIE-CHART">
      <path d="M168,97.39a23.86,23.86,0,0,1-21.15,13,24.12,24.12,0,0,1-23.9-24.31A24.38,24.38,0,0,1,133,66.26l13.85,19.8Z" transform="translate(-37.05 -61.74)" style="fill: #3730a3;fill-rule: evenodd"/>
      <path d="M146.81,86.06,133,66.26a23.44,23.44,0,0,1,12.13-4.45Z" transform="translate(-37.05 -61.74)" style="fill: #4338ca;fill-rule: evenodd"/>
      <path d="M145.72,61.77l1.09,0A23.63,23.63,0,0,1,164,69.12L146.81,86.06l-1.72-24.25.33,0Z" transform="translate(-37.05 -61.74)" style="fill: #4f46e5;fill-rule: evenodd"/>
      <path d="M170.41,67.7a24.6,24.6,0,0,1,4,28.27L153.27,84.63Z" transform="translate(-37.05 -61.74)" style="fill: #6366f1;fill-rule: evenodd"/>
    </g>
  </g>
</svg>
