<?xml version="1.0" encoding="utf-8"?>
<!-- Generator: Adobe Illustrator 23.0.1, SVG Export Plug-In . SVG Version: 6.00 Build 0)  -->
<svg version="1.1" id="Capa_1" xmlns="http://www.w3.org/2000/svg" xmlns:xlink="http://www.w3.org/1999/xlink" x="0px" y="0px"
	 viewBox="0 0 512 512" style="enable-background:new 0 0 512 512;" xml:space="preserve">
<style type="text/css">
	.st0{fill:#A5B4FC;}
	.st1{fill:#6366F1;}
	.st2{fill:#C55732;}
	.st3{fill:#A63917;}
	.st4{fill:#83250D;}
	.st5{fill:#EC781B;}
	.st6{fill:#FF9F00;}
	.st7{fill:#FFE400;}
	.st8{fill:#FFC300;}
	.st9{fill:#FFE853;}
	.st10{fill:#FED110;}
	.st11{fill:#FFFFFF;}
	.st12{fill:#D1F6FF;}
	.st13{fill:#4E689B;}
	.st14{fill:#374C81;}
	.st15{fill:#8FC8F5;}
</style>
<g>
	<g>
		<path class="st0" d="M512,256c0,65.6-24.7,125.5-65.3,170.8l-26.8,8.6c-106.6,34.3-221.2,34.3-327.7,0l-26.8-8.6
			C24.7,381.5,0,321.6,0,256C0,114.6,114.7-0.1,256.1,0C397.2,0.1,512,115,512,256L512,256z"/>
		<path class="st1" d="M512,256c0,65.6-24.7,125.5-65.3,170.8l-26.8,8.6c-106.6,34.3-221.2,34.3-327.7,0l-26.8-8.6
			C24.7,381.5,0,321.6,0,256c0-46.2,12.3-89.6,33.7-127C77.8,206.1,160.8,258,256,258s178.2-51.9,222.3-129
			C499.8,166.4,512,209.8,512,256L512,256z"/>
	</g>
	<g>
		<g>
			<g>
				<g>
					<path class="st2" d="M446.7,301.4v125.4c-7.1,8-14.8,15.5-22.9,22.5c-14.1,12.2-29.5,15.9-46,24.9
						C341.6,493.8,300.1,505,256,505c-37.2,0-72.5-7.9-104.4-22.2c-5.9-2.6-11.8-5.5-17.5-8.6c-16.5-9-31.9-12.7-46-24.9
						c-8.1-7-15.7-14.5-22.8-22.5V301.3L446.7,301.4z"/>
					<path class="st3" d="M446.7,301.4v125.4c-7.1,8-14.8,15.5-22.9,22.5c-14.1,12.2-29.5,14.9-46,23.9
						C341.6,492.8,300.1,504,256,504c-37.2,0-72.5-7.9-104.4-22.2V301.3L446.7,301.4z"/>
					<path class="st4" d="M446.7,301.4v125.4c-7.1,8-14.8,15.5-22.9,22.5c-14.1,12.2-29.5,8.8-46,17.8
						C341.6,486.7,300.1,505,256,505V301.4H446.7z"/>
					<path class="st5" d="M446.7,301.3v62.7H65.3v-62.7c0-37.1,2.8-72.1,7.8-103.1c4.1-25.9,26.5-44.9,52.7-44.9h35.1l92.5,27.9
						l100.2-27.9h32.5c0.5,0,1.1,0,1.6,0c25.5,0.7,47.1,19.5,51.1,44.8c4.5,27.9,7.2,59.1,7.7,92.2
						C446.7,294.2,446.7,297.9,446.7,301.3L446.7,301.3z"/>
					<path class="st2" d="M446.7,301.3v62.7H151.6v-62.7c0-37.1,2.8-93.8,7.8-124.7c1.4-8.7,38.7-16.5,43.6-23.2h88.9l35.7,17
						l34.7-17h23.9c0.5,0,1.1,0,1.6,0c25.5,0.7,47.1,19.5,51.1,44.8c4.5,27.9,7.2,59.1,7.7,92.2
						C446.7,294.2,446.7,297.9,446.7,301.3z"/>
					<path class="st3" d="M446.7,301.3v62.7H256V153.4h130.2c26.2,0,48.6,19,52.7,44.9C443.9,229.2,446.7,264.2,446.7,301.3
						L446.7,301.3z"/>
					<path class="st5" d="M459.7,311.1v43.3c0,5.4-4.3,9.7-9.7,9.7H62c-5.4,0-9.7-4.4-9.7-9.7v-43.3c0-5.4,4.3-9.7,9.7-9.7h388
						C455.4,301.3,459.7,305.7,459.7,311.1z"/>
					<path class="st6" d="M459.7,311.1v22.2H52.3v-22.2c0-5.4,4.3-9.7,9.7-9.7h388C455.4,301.3,459.7,305.7,459.7,311.1z"/>
					<g>
						<path class="st5" d="M423.9,449.3c-14.1,12.2-29.5,22.9-46,31.9C341.6,500.8,300.1,512,256,512s-85.6-11.2-121.9-30.8
							c-16.5-9-31.9-19.7-46-31.9L423.9,449.3z"/>
						<path class="st6" d="M423.9,449.3c-14.1,12.2-29.5,22.9-46,31.9H134.1c-16.5-9-31.9-19.7-46-31.9L423.9,449.3z"/>
					</g>
				</g>
				<g>
					<g>
						<g>
							<path class="st7" d="M161.4,153.4c-11.5,0-21.5,8.2-23.4,19.6c0,0.1,0,0.1,0,0.2c-5.3,33.3-8.1,90.8-8.1,128.2v177.5
								c1.4,0.8,2.8,1.6,4.2,2.3c5.7,3.1,11.5,6,17.5,8.6c7.1,3.2,14.3,6,21.7,8.5v-197c0-35.1,2.5-90.3,7.5-121.3
								c2.5-15.4,15.7-26.6,31.4-26.6L161.4,153.4z"/>
						</g>
						<path class="st8" d="M212.1,153.4c-15.7,0-28.9,11.2-31.4,26.6c-5,31-7.5,86.2-7.5,121.3v197c-7.4-2.5-14.6-5.4-21.7-8.5
							V301.3c0-37.1,2.8-93.8,7.8-124.8c0-0.1,0-0.2,0-0.3c2.2-13.3,14-22.9,27.5-22.9L212.1,153.4z"/>
					</g>
				</g>
				<g>
					<g>
						<g>
							<path class="st8" d="M374,173.2c0-0.1,0-0.1,0-0.2c-1.8-11.3-11.9-19.6-23.4-19.6h-50.8c15.7,0,28.9,11.2,31.4,26.6
								c5,31,7.5,86.2,7.5,121.3v197c7.4-2.5,14.6-5.4,21.7-8.5c6-2.6,11.8-5.5,17.5-8.6c1.4-0.8,2.8-1.5,4.2-2.3V301.3
								C382.1,263.9,379.4,206.4,374,173.2L374,173.2z"/>
						</g>
						<path class="st7" d="M360.4,301.4v188.4c-7.1,3.2-14.3,6-21.7,8.5v-197c0-35.1-2.5-90.3-7.5-121.3
							c-2.5-15.4-15.7-26.6-31.4-26.6h25.2c13.5,0,25.3,9.6,27.5,22.9c0,0.1,0,0.2,0,0.3C357.6,207.5,360.4,264.2,360.4,301.4
							L360.4,301.4z"/>
					</g>
				</g>
				<path class="st9" d="M281.7,303.2v69.1c0,9.5-7.7,17.2-17.2,17.2h-17c-9.5,0-17.2-7.7-17.2-17.2v-69.1c0-9.5,7.7-17.2,17.2-17.2
					h17C274,286,281.7,293.7,281.7,303.2z"/>
			</g>
			<path class="st10" d="M281.7,303.2v69.1c0,9.5-7.7,17.2-17.2,17.2H256V286h8.5C274,286,281.7,293.7,281.7,303.2z"/>
			<path class="st11" d="M269.8,338.6h-27.6c-3.4,0-6.2,2.8-6.2,6.2v50.1H276v-50.1C276,341.4,273.3,338.6,269.8,338.6z
				 M263.6,382.5h-15.3V351h15.3V382.5z"/>
			<path class="st12" d="M276,344.8v50.1h-20v-12.4h7.6V351H256v-12.4h13.8C273.3,338.6,276,341.4,276,344.8z"/>
			<path class="st13" d="M268.6,329.9v17.5c0,7-5.6,12.6-12.6,12.6s-12.6-5.6-12.6-12.6v-17.5c0-7,5.6-12.6,12.6-12.6
				c3.5,0,6.6,1.4,8.9,3.7C267.2,323.3,268.6,326.4,268.6,329.9z"/>
			<path class="st14" d="M268.6,329.9v17.5c0,7-5.6,12.6-12.6,12.6v-42.6c3.5,0,6.6,1.4,8.9,3.7
				C267.2,323.3,268.6,326.4,268.6,329.9z"/>
			<path class="st12" d="M288.9,386.7v33.5c0,6.8-5.5,12.4-12.4,12.4h-41c-6.8,0-12.4-5.5-12.4-12.4v-33.5c0-6.8,5.5-12.4,12.4-12.4
				h41C283.3,374.3,288.9,379.9,288.9,386.7z"/>
			<path class="st15" d="M288.9,386.7v33.5c0,6.8-5.5,12.4-12.4,12.4H256v-58.2h20.5C283.3,374.3,288.9,379.9,288.9,386.7z"/>
		</g>
		<g>
			<g>
				<g>
					<path class="st11" d="M237.9,53.2h1.5c6.8,0,12.2,5.5,12.2,12.2V67h8.7v-1.5c0-6.8,5.5-12.2,12.2-12.2h1.5v-8.7h-1.5
						c-6.8,0-12.2-5.5-12.2-12.2v-1.5h-8.7v1.5c0,6.8-5.5,12.2-12.2,12.2h-1.5L237.9,53.2z"/>
				</g>
			</g>
			<g>
				<g>
					<g>
						<path class="st11" d="M86.6,115.2h1.5c6.8,0,12.2,5.5,12.2,12.2v1.5h8.7v-1.5c0-6.8,5.5-12.2,12.2-12.2h1.5v-8.7h-1.5
							c-6.8,0-12.2-5.5-12.2-12.2v-1.5h-8.7v1.5c0,6.8-5.5,12.2-12.2,12.2h-1.5V115.2z"/>
					</g>
				</g>
				<g>
					<g>
						<path class="st11" d="M389.2,115.2h1.5c6.8,0,12.2,5.5,12.2,12.2v1.5h8.7v-1.5c0-6.8,5.5-12.2,12.2-12.2h1.5v-8.7h-1.5
							c-6.8,0-12.2-5.5-12.2-12.2v-1.5h-8.7v1.5c0,6.8-5.5,12.2-12.2,12.2h-1.5V115.2z"/>
					</g>
				</g>
				<g>
					<g>
						<path class="st11" d="M461.9,242.2h1.5c6.8,0,12.2,5.5,12.2,12.2v1.5h8.7v-1.5c0-6.8,5.5-12.2,12.2-12.2h1.5v-8.7h-1.5
							c-6.8,0-12.2-5.5-12.2-12.2v-1.5h-8.7v1.5c0,6.8-5.5,12.2-12.2,12.2h-1.5V242.2z"/>
					</g>
				</g>
				<g>
					<g>
						<path class="st11" d="M16.4,242.2H18c6.8,0,12.2,5.5,12.2,12.2v1.5h8.7v-1.5c0-6.8,5.5-12.2,12.2-12.2h1.5v-8.7h-1.5
							c-6.8,0-12.2-5.5-12.2-12.2v-1.5h-8.7v1.5c0,6.8-5.5,12.2-12.2,12.2h-1.5L16.4,242.2z"/>
					</g>
				</g>
			</g>
		</g>
	</g>
</g>
</svg>
