<svg id="f703978c-7e63-4c34-955a-001265b17628" data-name="Capa 1" xmlns="http://www.w3.org/2000/svg" viewBox="0 0 512 512">
  <title>treasure-chesty</title>
  <g>
    <g>
      <path d="M512,256a255.13,255.13,0,0,1-65.3,170.8l-26.8,8.6a534.67,534.67,0,0,1-327.7,0l-26.8-8.6A254.72,254.72,0,0,1,0,256C0,114.6,114.7-.1,256.1,0,397.2.1,512,115,512,256Z" transform="translate(0 0)" style="fill: #a5b4fc"/>
      <path d="M512,256a255.13,255.13,0,0,1-65.3,170.8l-26.8,8.6a534.67,534.67,0,0,1-327.7,0l-26.8-8.6A255.9,255.9,0,0,1,33.7,129a256,256,0,0,0,444.6,0A254.05,254.05,0,0,1,512,256Z" transform="translate(0 0)" style="fill: #6366f1"/>
    </g>
    <g>
      <g>
        <g>
          <g>
            <path d="M446.7,301.4V426.8a243.2,243.2,0,0,1-22.9,22.5c-14.1,12.2-29.5,15.9-46,24.9a256.39,256.39,0,0,1-226.2,8.6c-5.9-2.6-11.8-5.5-17.5-8.6-16.5-9-31.9-12.7-46-24.9a242.12,242.12,0,0,1-22.8-22.5V301.3Z" transform="translate(0 0)" style="fill: #c55732"/>
            <path d="M446.7,301.4V426.8a243.2,243.2,0,0,1-22.9,22.5c-14.1,12.2-29.5,14.9-46,23.9a256.39,256.39,0,0,1-226.2,8.6V301.3Z" transform="translate(0 0)" style="fill: #a63917"/>
            <path d="M446.7,301.4V426.8a243.2,243.2,0,0,1-22.9,22.5c-14.1,12.2-29.5,8.8-46,17.8C341.6,486.7,300.1,505,256,505V301.4Z" transform="translate(0 0)" style="fill: #83250d"/>
            <path d="M446.7,301.3V364H65.3V301.3a654.24,654.24,0,0,1,7.8-103.1,53.31,53.31,0,0,1,52.7-44.9h35.1l92.5,27.9,100.2-27.9h34.1a53.24,53.24,0,0,1,51.1,44.8,645.56,645.56,0,0,1,7.7,92.2c.2,3.9.2,7.6.2,11Z" transform="translate(0 0)" style="fill: #ec781b"/>
            <path d="M446.7,301.3V364H151.6V301.3c0-37.1,2.8-93.8,7.8-124.7,1.4-8.7,38.7-16.5,43.6-23.2h88.9l35.7,17,34.7-17h25.5a53.24,53.24,0,0,1,51.1,44.8,645.56,645.56,0,0,1,7.7,92.2C446.7,294.2,446.7,297.9,446.7,301.3Z" transform="translate(0 0)" style="fill: #c55732"/>
            <path d="M446.7,301.3V364H256V153.4H386.2a53.31,53.31,0,0,1,52.7,44.9,652,652,0,0,1,7.8,103Z" transform="translate(0 0)" style="fill: #a63917"/>
            <path d="M459.7,311.1v43.3a9.65,9.65,0,0,1-9.7,9.7H62a9.71,9.71,0,0,1-9.7-9.7V311.1a9.65,9.65,0,0,1,9.7-9.7H450A9.58,9.58,0,0,1,459.7,311.1Z" transform="translate(0 0)" style="fill: #ec781b"/>
            <path d="M459.7,311.1v22.2H52.3V311.1a9.65,9.65,0,0,1,9.7-9.7H450A9.58,9.58,0,0,1,459.7,311.1Z" transform="translate(0 0)" style="fill: #ff9f00"/>
            <g>
              <path d="M423.9,449.3a262.06,262.06,0,0,1-46,31.9,256.63,256.63,0,0,1-243.8,0,262.06,262.06,0,0,1-46-31.9Z" transform="translate(0 0)" style="fill: #ec781b"/>
              <path d="M423.9,449.3a262.06,262.06,0,0,1-46,31.9H134.1a262.06,262.06,0,0,1-46-31.9Z" transform="translate(0 0)" style="fill: #ff9f00"/>
            </g>
          </g>
          <g>
            <path d="M161.4,153.4A23.63,23.63,0,0,0,138,173v.2c-5.3,33.3-8.1,90.8-8.1,128.2V478.9c1.4.8,2.8,1.6,4.2,2.3,5.7,3.1,11.5,6,17.5,8.6,7.1,3.2,14.3,6,21.7,8.5v-197c0-35.1,2.5-90.3,7.5-121.3a31.63,31.63,0,0,1,31.4-26.6Z" transform="translate(0 0)" style="fill: #ffe400"/>
            <path d="M212.1,153.4A31.63,31.63,0,0,0,180.7,180c-5,31-7.5,86.2-7.5,121.3v197c-7.4-2.5-14.6-5.4-21.7-8.5V301.3c0-37.1,2.8-93.8,7.8-124.8v-.3a27.73,27.73,0,0,1,27.5-22.9Z" transform="translate(0 0)" style="fill: #ffc300"/>
          </g>
          <g>
            <path d="M374,173.2V173a23.65,23.65,0,0,0-23.4-19.6H299.8A31.63,31.63,0,0,1,331.2,180c5,31,7.5,86.2,7.5,121.3v197c7.4-2.5,14.6-5.4,21.7-8.5,6-2.6,11.8-5.5,17.5-8.6,1.4-.8,2.8-1.5,4.2-2.3V301.3c0-37.4-2.7-94.9-8.1-128.1Z" transform="translate(0 0)" style="fill: #ffc300"/>
            <path d="M360.4,301.4V489.8c-7.1,3.2-14.3,6-21.7,8.5v-197c0-35.1-2.5-90.3-7.5-121.3a31.63,31.63,0,0,0-31.4-26.6H325a27.73,27.73,0,0,1,27.5,22.9v.3c5.1,30.9,7.9,87.6,7.9,124.8Z" transform="translate(0 0)" style="fill: #ffe400"/>
          </g>
          <path d="M281.7,303.2v69.1a17.2,17.2,0,0,1-17.2,17.2h-17a17.2,17.2,0,0,1-17.2-17.2V303.2A17.2,17.2,0,0,1,247.5,286h17A17.2,17.2,0,0,1,281.7,303.2Z" transform="translate(0 0)" style="fill: #ffe853"/>
        </g>
        <path d="M281.7,303.2v69.1a17.2,17.2,0,0,1-17.2,17.2H256V286h8.5A17.2,17.2,0,0,1,281.7,303.2Z" transform="translate(0 0)" style="fill: #fed110"/>
        <path d="M269.8,338.6H242.2a6.23,6.23,0,0,0-6.2,6.2v50.1h40V344.8A6.17,6.17,0,0,0,269.8,338.6Zm-6.2,43.9H248.3V351h15.3Z" transform="translate(0 0)" style="fill: #fff"/>
        <path d="M276,344.8v50.1H256V382.5h7.6V351H256V338.6h13.8A6.17,6.17,0,0,1,276,344.8Z" transform="translate(0 0)" style="fill: #d1f6ff"/>
        <path d="M268.6,329.9v17.5a12.6,12.6,0,0,1-25.2,0V329.9a12.6,12.6,0,0,1,25.2,0Z" transform="translate(0 0)" style="fill: #4e689b"/>
        <path d="M268.6,329.9v17.5A12.55,12.55,0,0,1,256,360V317.4a12.46,12.46,0,0,1,8.9,3.7A12.06,12.06,0,0,1,268.6,329.9Z" transform="translate(0 0)" style="fill: #374c81"/>
        <path d="M288.9,386.7v33.5a12.4,12.4,0,0,1-12.4,12.4h-41a12.4,12.4,0,0,1-12.4-12.4V386.7a12.4,12.4,0,0,1,12.4-12.4h41A12.46,12.46,0,0,1,288.9,386.7Z" transform="translate(0 0)" style="fill: #d1f6ff"/>
        <path d="M288.9,386.7v33.5a12.4,12.4,0,0,1-12.4,12.4H256V374.4h20.5A12.31,12.31,0,0,1,288.9,386.7Z" transform="translate(0 0)" style="fill: #8fc8f5"/>
      </g>
      <g>
        <path d="M237.9,53.2h1.5a12.18,12.18,0,0,1,12.2,12.2V67h8.7V65.5a12.18,12.18,0,0,1,12.2-12.2H274V44.6h-1.5a12.18,12.18,0,0,1-12.2-12.2V30.9h-8.7v1.5a12.18,12.18,0,0,1-12.2,12.2h-1.5Z" transform="translate(0 0)" style="fill: #fff"/>
        <g>
          <path d="M86.6,115.2h1.5a12.18,12.18,0,0,1,12.2,12.2v1.5H109v-1.5a12.18,12.18,0,0,1,12.2-12.2h1.5v-8.7h-1.5A12.18,12.18,0,0,1,109,94.3V92.8h-8.7v1.5a12.18,12.18,0,0,1-12.2,12.2H86.6Z" transform="translate(0 0)" style="fill: #fff"/>
          <path d="M389.2,115.2h1.5a12.18,12.18,0,0,1,12.2,12.2v1.5h8.7v-1.5a12.18,12.18,0,0,1,12.2-12.2h1.5v-8.7h-1.5a12.18,12.18,0,0,1-12.2-12.2V92.8h-8.7v1.5a12.18,12.18,0,0,1-12.2,12.2h-1.5Z" transform="translate(0 0)" style="fill: #fff"/>
          <path d="M461.9,242.2h1.5a12.18,12.18,0,0,1,12.2,12.2v1.5h8.7v-1.5a12.18,12.18,0,0,1,12.2-12.2H498v-8.7h-1.5a12.18,12.18,0,0,1-12.2-12.2v-1.5h-8.7v1.5a12.18,12.18,0,0,1-12.2,12.2h-1.5Z" transform="translate(0 0)" style="fill: #fff"/>
          <path d="M16.4,242.2H18a12.18,12.18,0,0,1,12.2,12.2v1.5h8.7v-1.5a12.18,12.18,0,0,1,12.2-12.2h1.5v-8.7H51.1a12.18,12.18,0,0,1-12.2-12.2v-1.5H30.2v1.5A12.18,12.18,0,0,1,18,233.5H16.5Z" transform="translate(0 0)" style="fill: #fff"/>
        </g>
      </g>
    </g>
  </g>
</svg>
